<?xml version="1.0" encoding="utf-8"?>
<!-- Generator: Adobe Illustrator 24.2.0, SVG Export Plug-In . SVG Version: 6.00 Build 0)  -->
<svg version="1.1" id="Layer_1" xmlns="http://www.w3.org/2000/svg" xmlns:xlink="http://www.w3.org/1999/xlink" x="0px" y="0px"
	 viewBox="0 0 20 20" style="enable-background:new 0 0 20 20;" xml:space="preserve">
<style type="text/css">
	.st0{fill:none;}
	.st1{fill:#3B697E;}
	.st2{fill:#E6522C;}
	.st3{fill:url(#SVGID_1_);}
	.st4{fill-rule:evenodd;clip-rule:evenodd;fill:url(#SVGID_2_);}
	.st5{fill:url(#SVGID_3_);}
	.st6{fill:url(#SVGID_4_);}
	.st7{fill:url(#SVGID_5_);}
	.st8{fill:url(#SVGID_6_);}
	.st9{fill:url(#SVGID_7_);}
	.st10{fill:url(#SVGID_8_);}
	.st11{fill:url(#SVGID_9_);}
	.st12{fill:url(#SVGID_10_);}
	.st13{fill:url(#SVGID_11_);}
	.st14{fill:url(#SVGID_12_);}
	.st15{fill:url(#SVGID_13_);}
	.st16{fill:url(#SVGID_14_);}
	.st17{fill:url(#SVGID_15_);}
	.st18{fill:url(#SVGID_16_);}
	.st19{fill:#F05A27;}
	.st20{fill:url(#SVGID_17_);}
	.st21{fill:url(#SVGID_18_);}
	.st22{fill:url(#SVGID_19_);}
</style>
<g>
	
		<linearGradient id="SVGID_1_" gradientUnits="userSpaceOnUse" x1="457.6315" y1="510.5523" x2="457.6315" y2="486.0286" gradientTransform="matrix(0.9884 -0.1521 0.1521 0.9884 -524.4139 -411.0358)">
		<stop  offset="0" style="stop-color:#FAED1E"/>
		<stop  offset="1" style="stop-color:#F15B2B"/>
	</linearGradient>
	<polygon class="st3" points="5.7,19.7 5.5,18.1 3.9,18.4 4.1,19.9 	"/>
	
		<linearGradient id="SVGID_2_" gradientUnits="userSpaceOnUse" x1="467.9052" y1="510.5523" x2="467.9052" y2="486.0286" gradientTransform="matrix(0.9884 -0.1521 0.1521 0.9884 -524.4139 -411.0358)">
		<stop  offset="0" style="stop-color:#FAED1E"/>
		<stop  offset="1" style="stop-color:#F15B2B"/>
	</linearGradient>
	<polygon style="fill:url(#SVGID_2_);" points="18.2,15.2 18,13.6 10.9,14.7 11.2,16.3 	"/>
	
		<linearGradient id="SVGID_3_" gradientUnits="userSpaceOnUse" x1="462.6557" y1="510.5523" x2="462.6557" y2="486.0286" gradientTransform="matrix(0.9884 -0.1521 0.1521 0.9884 -524.4139 -411.0358)">
		<stop  offset="0" style="stop-color:#FAED1E"/>
		<stop  offset="1" style="stop-color:#F15B2B"/>
	</linearGradient>
	<polygon class="st5" points="8.7,16.7 10.3,16.5 10.1,14.9 8.5,15.1 	"/>
	
		<linearGradient id="SVGID_4_" gradientUnits="userSpaceOnUse" x1="460.1397" y1="510.5523" x2="460.1397" y2="486.0286" gradientTransform="matrix(0.9884 -0.1521 0.1521 0.9884 -524.4139 -411.0358)">
		<stop  offset="0" style="stop-color:#FAED1E"/>
		<stop  offset="1" style="stop-color:#F15B2B"/>
	</linearGradient>
	<polygon class="st6" points="8.2,19.3 7.9,17.7 6.4,18 6.6,19.6 	"/>
	
		<linearGradient id="SVGID_5_" gradientUnits="userSpaceOnUse" x1="457.6278" y1="510.5523" x2="457.6278" y2="486.0286" gradientTransform="matrix(0.9884 -0.1521 0.1521 0.9884 -524.4139 -411.0358)">
		<stop  offset="0" style="stop-color:#FAED1E"/>
		<stop  offset="1" style="stop-color:#F15B2B"/>
	</linearGradient>
	<polygon class="st7" points="3.5,15.9 3.7,17.5 5.3,17.2 5.1,15.6 	"/>
	
		<linearGradient id="SVGID_6_" gradientUnits="userSpaceOnUse" x1="467.9089" y1="510.5523" x2="467.9089" y2="486.0286" gradientTransform="matrix(0.9884 -0.1521 0.1521 0.9884 -524.4139 -411.0358)">
		<stop  offset="0" style="stop-color:#FAED1E"/>
		<stop  offset="1" style="stop-color:#F15B2B"/>
	</linearGradient>
	<polygon class="st8" points="11.3,17.2 11.6,18.8 18.6,17.7 18.3,16.1 	"/>
	
		<linearGradient id="SVGID_7_" gradientUnits="userSpaceOnUse" x1="462.6582" y1="510.5523" x2="462.6582" y2="486.0286" gradientTransform="matrix(0.9884 -0.1521 0.1521 0.9884 -524.4139 -411.0358)">
		<stop  offset="0" style="stop-color:#FAED1E"/>
		<stop  offset="1" style="stop-color:#F15B2B"/>
	</linearGradient>
	<polygon class="st9" points="9.1,19.2 10.7,18.9 10.4,17.4 8.9,17.6 	"/>
	
		<linearGradient id="SVGID_8_" gradientUnits="userSpaceOnUse" x1="460.1462" y1="510.5523" x2="460.1462" y2="486.0286" gradientTransform="matrix(0.9884 -0.1521 0.1521 0.9884 -524.4139 -411.0358)">
		<stop  offset="0" style="stop-color:#FAED1E"/>
		<stop  offset="1" style="stop-color:#F15B2B"/>
	</linearGradient>
	<polygon class="st10" points="6,15.5 6.2,17.1 7.8,16.8 7.6,15.3 	"/>
	
		<linearGradient id="SVGID_9_" gradientUnits="userSpaceOnUse" x1="457.1679" y1="510.0759" x2="457.1679" y2="486.8173" gradientTransform="matrix(0.9884 -0.1521 0.1521 0.9884 -524.4139 -411.0358)">
		<stop  offset="0" style="stop-color:#FAED1E"/>
		<stop  offset="1" style="stop-color:#F15B2B"/>
	</linearGradient>
	<polygon class="st11" points="4,14.9 2.1,2.2 1.4,2.3 3.4,15 	"/>
	
		<linearGradient id="SVGID_10_" gradientUnits="userSpaceOnUse" x1="458.0992" y1="510.7209" x2="458.0992" y2="485.7493" gradientTransform="matrix(0.9884 -0.1521 0.1521 0.9884 -524.4139 -411.0358)">
		<stop  offset="0" style="stop-color:#FAED1E"/>
		<stop  offset="1" style="stop-color:#F15B2B"/>
	</linearGradient>
	<polygon class="st12" points="5,14.7 2.9,1.1 2.2,1.2 4.3,14.8 	"/>
	
		<linearGradient id="SVGID_11_" gradientUnits="userSpaceOnUse" x1="459.6899" y1="511.2877" x2="459.6899" y2="484.8108" gradientTransform="matrix(0.9884 -0.1521 0.1521 0.9884 -524.4139 -411.0358)">
		<stop  offset="0" style="stop-color:#FAED1E"/>
		<stop  offset="1" style="stop-color:#F15B2B"/>
	</linearGradient>
	<polygon class="st13" points="6.5,14.5 4.3,0 3.6,0.1 5.9,14.6 	"/>
	
		<linearGradient id="SVGID_12_" gradientUnits="userSpaceOnUse" x1="460.6166" y1="510.4072" x2="460.6166" y2="486.2688" gradientTransform="matrix(0.9884 -0.1521 0.1521 0.9884 -524.4139 -411.0358)">
		<stop  offset="0" style="stop-color:#FAED1E"/>
		<stop  offset="1" style="stop-color:#F15B2B"/>
	</linearGradient>
	<polygon class="st14" points="7.4,14.4 5.4,1.2 4.7,1.3 6.8,14.5 	"/>
	
		<linearGradient id="SVGID_13_" gradientUnits="userSpaceOnUse" x1="462.1974" y1="509.3922" x2="462.1974" y2="487.9494" gradientTransform="matrix(0.9884 -0.1521 0.1521 0.9884 -524.4139 -411.0358)">
		<stop  offset="0" style="stop-color:#FAED1E"/>
		<stop  offset="1" style="stop-color:#F15B2B"/>
	</linearGradient>
	<polygon class="st15" points="9,14.1 7.2,2.4 6.5,2.5 8.3,14.2 	"/>
	
		<linearGradient id="SVGID_14_" gradientUnits="userSpaceOnUse" x1="463.1229" y1="509.7016" x2="463.1229" y2="487.4372" gradientTransform="matrix(0.9884 -0.1521 0.1521 0.9884 -524.4139 -411.0358)">
		<stop  offset="0" style="stop-color:#FAED1E"/>
		<stop  offset="1" style="stop-color:#F15B2B"/>
	</linearGradient>
	<polygon class="st16" points="9.9,14 8,1.8 7.4,1.9 9.3,14.1 	"/>
</g>
</svg>
