<?xml version="1.0" encoding="utf-8"?>
<!-- Generator: Adobe Illustrator 24.2.0, SVG Export Plug-In . SVG Version: 6.00 Build 0)  -->
<svg version="1.1" id="Layer_1" xmlns="http://www.w3.org/2000/svg" xmlns:xlink="http://www.w3.org/1999/xlink" x="0px" y="0px"
	 viewBox="0 0 20 20" style="enable-background:new 0 0 20 20;" xml:space="preserve">
<style type="text/css">
	.st0{fill:none;}
	.st1{fill:#3B697E;}
	.st2{fill:#E6522C;}
	.st3{fill:url(#SVGID_1_);}
	.st4{fill-rule:evenodd;clip-rule:evenodd;fill:url(#SVGID_2_);}
	.st5{fill:url(#SVGID_3_);}
	.st6{fill:url(#SVGID_4_);}
	.st7{fill:url(#SVGID_5_);}
	.st8{fill:url(#SVGID_6_);}
	.st9{fill:url(#SVGID_7_);}
	.st10{fill:url(#SVGID_8_);}
	.st11{fill:url(#SVGID_9_);}
	.st12{fill:url(#SVGID_10_);}
	.st13{fill:url(#SVGID_11_);}
	.st14{fill:url(#SVGID_12_);}
	.st15{fill:url(#SVGID_13_);}
	.st16{fill:url(#SVGID_14_);}
	.st17{fill:url(#SVGID_15_);}
	.st18{fill:url(#SVGID_16_);}
	.st19{fill:#F05A27;}
	.st20{fill:url(#SVGID_17_);}
	.st21{fill:url(#SVGID_18_);}
	.st22{fill:url(#SVGID_19_);}
</style>
<path id="path4486" class="st2" d="M10,0C4.5,0,0,4.5,0,10c0,5.5,4.5,10,10,10s10-4.5,10-10C20,4.5,15.5,0,10,0z M10,18.7
	c-1.6,0-2.8-1-2.8-2.3h5.7C12.8,17.6,11.6,18.7,10,18.7z M14.7,15.6H5.3v-1.7h9.4L14.7,15.6L14.7,15.6z M14.6,13H5.3
	c0,0-0.1-0.1-0.1-0.1c-1-1.2-1.2-1.8-1.4-2.4c0,0,1.2,0.2,2,0.4c0,0,0.4,0.1,1,0.2c-0.6-0.7-1-1.6-1-2.5c0-2,1.5-3.7,1-5.1
	c0.5,0,1.1,1.1,1.2,2.8c0.6-0.8,0.8-2.2,0.8-3.1c0-0.9,0.6-2,1.2-2c-0.5,0.9,0.1,1.6,0.7,3.5C11,5.4,11,6.6,11.2,7.4
	c0.1-1.6,0.3-3.9,1.3-4.7c-0.4,1,0.1,2.2,0.4,2.8c0.6,1,0.9,1.7,0.9,3.1c0,0.9-0.3,1.8-0.9,2.5c0.7-0.1,1.1-0.2,1.1-0.2l2.1-0.4
	C16.1,10.5,15.8,11.8,14.6,13z"/>
</svg>
